<svg width="17" height="18" viewBox="0 0 17 18" fill="none" xmlns="http://www.w3.org/2000/svg">
<path d="M16.8867 8.4616C16.8192 8.28771 16.7181 8.12883 16.5892 7.9941L9.50583 0.910771C9.37374 0.778683 9.21693 0.673905 9.04435 0.60242C8.87177 0.530934 8.6868 0.494141 8.5 0.494141C8.12274 0.494141 7.76093 0.644007 7.49417 0.910771C7.36208 1.04286 7.2573 1.19967 7.18581 1.37225C7.11433 1.54483 7.07754 1.7298 7.07754 1.9166C7.07754 2.29386 7.2274 2.65567 7.49417 2.92244L12.1692 7.58327H1.41667C1.04094 7.58327 0.680609 7.73253 0.414932 7.9982C0.149256 8.26388 0 8.62421 0 8.99994C0 9.37566 0.149256 9.73599 0.414932 10.0017C0.680609 10.2673 1.04094 10.4166 1.41667 10.4166H12.1692L7.49417 15.0774C7.36138 15.2091 7.25599 15.3658 7.18407 15.5385C7.11215 15.7111 7.07512 15.8963 7.07512 16.0833C7.07512 16.2703 7.11215 16.4555 7.18407 16.6281C7.25599 16.8007 7.36138 16.9574 7.49417 17.0891C7.62586 17.2219 7.78255 17.3273 7.95518 17.3992C8.12782 17.4711 8.31298 17.5082 8.5 17.5082C8.68702 17.5082 8.87218 17.4711 9.04482 17.3992C9.21745 17.3273 9.37414 17.2219 9.50583 17.0891L16.5892 10.0058C16.7181 9.87104 16.8192 9.71217 16.8867 9.53827C17.0284 9.19337 17.0284 8.80651 16.8867 8.4616Z" fill="white"/>
</svg>
