<svg width="54" height="54" viewBox="0 0 54 54" fill="none" xmlns="http://www.w3.org/2000/svg">
<path d="M12.6809 8C12.0686 7.99995 11.5066 7.9999 11.0408 8.04684C10.5353 8.09777 9.98783 8.21539 9.47574 8.55433C9.11317 8.7943 8.80187 9.10266 8.55961 9.46181C8.21745 9.96906 8.0987 10.5114 8.04729 11.012C7.9999 11.4735 7.99995 12.0302 8 12.6367L8.00001 15.5181H24.9281C25.3367 15.5181 25.5651 15.5171 25.7363 15.5042C25.8126 15.4985 25.8543 15.4917 25.8757 15.4873C25.8858 15.4853 25.8931 15.4831 25.8931 15.4831L25.8956 15.4823L25.8979 15.4812C25.8979 15.4812 25.9046 15.4775 25.9132 15.4719C25.9315 15.4601 25.9658 15.4357 26.0238 15.3863C26.1541 15.2755 26.3163 15.1162 26.6052 14.83L29.7054 11.759L24.1021 11.759C23.8662 9.64461 22.0565 8.00001 19.859 8.00001L12.6809 8Z" fill="#ED6528"/>
<path d="M8.00001 28.308L8.00001 18.3374H24.9281L25.08 18.3376C25.6979 18.3394 26.3649 18.3413 26.9848 18.087C27.6046 17.8326 28.0749 17.3642 28.5105 16.9301L28.6177 16.8235L33.7305 11.759L39.8669 11.759C40.6882 11.7589 41.4412 11.7589 42.0537 11.8404C42.7282 11.9303 43.4411 12.1416 44.0274 12.7224C44.6138 13.3032 44.8271 14.0094 44.9178 14.6775C45.0002 15.2843 45.0001 16.0301 45 16.8436L45 28.3079C45 30.8784 45.0001 32.9502 44.7789 34.5797C44.5493 36.2714 44.058 37.6959 42.9159 38.8272C41.7738 39.9585 40.3358 40.4451 38.6279 40.6726C36.9829 40.8916 34.8913 40.8916 32.2964 40.8916H26.7314C26.8887 40.4507 26.9743 39.9762 26.9743 39.4819C26.9743 37.1464 25.063 35.253 22.7051 35.253H21.282V33.8434C21.282 31.5078 19.3706 29.6145 17.0128 29.6145C14.655 29.6145 12.7436 31.5078 12.7436 33.8434V35.253H11.3205C10.2735 35.253 9.31446 35.6264 8.57178 36.246C8.41237 35.7236 8.30093 35.1678 8.2211 34.5797C7.99994 32.9502 7.99997 30.8784 8.00001 28.308Z" fill="#ED6528"/>
<path d="M18.9103 33.8434C18.9103 32.8053 18.0607 31.9639 17.0128 31.9639C15.9649 31.9639 15.1154 32.8053 15.1154 33.8434V37.6024H11.3205C10.2726 37.6024 9.42308 38.4439 9.42308 39.4819C9.42308 40.52 10.2726 41.3614 11.3205 41.3614H15.1154V45.1205C15.1154 46.1585 15.9649 47 17.0128 47C18.0607 47 18.9103 46.1585 18.9103 45.1205V41.3614H22.7051C23.753 41.3614 24.6026 40.52 24.6026 39.4819C24.6026 38.4439 23.753 37.6024 22.7051 37.6024H18.9103V33.8434Z" fill="#ED6528"/>
</svg>
