<svg width="54" height="54" viewBox="0 0 54 54" fill="none" xmlns="http://www.w3.org/2000/svg">
<path d="M19.0045 37.8726C17.8753 38.6181 17.3107 38.9909 16.6718 39.0101C16.0329 39.0292 15.447 38.6909 14.2751 38.0144L9.34938 35.1705C8.1775 34.4939 7.59157 34.1556 7.28871 33.5928C6.98586 33.0299 7.02639 32.3545 7.10747 31.0038L7.13841 30.4883C7.26513 28.3771 7.32849 27.3215 7.62992 26.3179C7.93135 25.3143 8.46011 24.3985 9.51761 22.5668L15.268 12.6069C17.3893 8.93263 18.45 7.09551 20.2504 6.61308C22.0509 6.13065 23.888 7.19131 27.5622 9.31263L28.4283 9.81263C31.2682 11.4522 32.6881 12.2721 33.2877 13.558C33.5096 14.0337 33.6465 14.5446 33.6922 15.0675C33.8159 16.481 32.9961 17.9009 31.3565 20.7408C31.1515 21.0958 31.049 21.2733 30.8883 21.3483C30.8288 21.376 30.765 21.3931 30.6996 21.3988C30.5229 21.4143 30.3454 21.3118 29.9904 21.1069L22.088 16.5444C21.6287 16.2792 21.399 16.1466 21.174 16.2069C20.9489 16.2672 20.8163 16.4969 20.5512 16.9561C20.286 17.4154 20.1534 17.6451 20.2137 17.8701C20.274 18.0952 20.5037 18.2278 20.963 18.4929L28.7572 22.9929C29.2165 23.2581 29.4461 23.3907 29.5064 23.6157C29.5667 23.8408 29.4341 24.0704 29.169 24.5297L25.1061 31.5668C24.0486 33.3985 23.5198 34.3143 22.8014 35.0772C22.0829 35.84 21.2004 36.4227 19.4354 37.588L19.0045 37.8726Z" fill="#ED6528"/>
<path d="M14.5843 40.791C13.5237 42.6281 12.9933 43.5467 12.0931 43.7879C11.1929 44.0291 10.2743 43.4988 8.43722 42.4381C6.6001 41.3774 5.68154 40.8471 5.44033 39.9469C5.19911 39.0467 5.72944 38.1281 6.79011 36.291L14.5843 40.791Z" fill="#ED6528"/>
<path d="M39.8416 39.8606C38.9963 39.7759 38.4123 39.7175 37.8352 39.7189C35.5139 39.7248 33.2513 40.4485 31.3576 41.7909C30.8867 42.1246 30.4451 42.5111 29.8059 43.0706L29.7218 43.1442C28.644 44.0873 28.2686 44.4088 27.9032 44.6474C26.2909 45.7004 24.3056 46.0146 22.4469 45.511C22.0257 45.3968 21.5693 45.207 20.253 44.6429L18.8861 44.057C17.7439 43.5675 16.4212 44.0966 15.9317 45.2388C15.4422 46.381 15.9713 47.7037 17.1134 48.1932L18.6299 48.8431C19.7403 49.3193 20.5045 49.6469 21.27 49.8544C24.3678 50.6937 27.6766 50.17 30.3638 48.4151C31.0278 47.9814 31.6535 47.4337 32.5626 46.638L32.6851 46.5308C33.4397 45.8705 33.7002 45.6462 33.9599 45.4621C35.0962 44.6566 36.4538 44.2224 37.8465 44.2189C38.1649 44.2181 38.5073 44.2496 39.505 44.3494L45.9009 44.9889C47.1373 45.1126 48.2399 44.2105 48.3636 42.974C48.4872 41.7375 47.5851 40.6349 46.3486 40.5113L39.8416 39.8606Z" fill="#ED6528"/>
</svg>
