<svg width="54" height="54" viewBox="0 0 54 54" fill="none" xmlns="http://www.w3.org/2000/svg">
<path d="M27 6C21.5973 6 17.2175 10.3514 17.2175 15.7191C17.2175 21.0867 21.5973 25.4381 27 25.4381C32.4028 25.4381 36.7826 21.0867 36.7826 15.7191C36.7826 10.3514 32.4028 6 27 6Z" fill="#ED6528"/>
<path d="M18.5531 25.5937C15.3341 27.3023 12.9743 30.3747 12.2381 34.0513C11.9995 35.2433 11.9997 36.6258 12 38.7979L12 42.503C12 44.3399 13.1257 45.9917 14.8423 46.6738C22.6468 49.7754 31.3532 49.7754 39.1577 46.6738C40.8743 45.9917 42 44.3399 42 42.503L42 38.7979C42.0003 36.6258 42.0005 35.2433 41.7619 34.0513C41.0258 30.3747 38.6659 27.3023 35.447 25.5937C33.1712 27.5171 30.222 28.6778 27 28.6778C23.778 28.6778 20.8289 27.5171 18.5531 25.5937Z" fill="#ED6528"/>
</svg>
