<svg width="54" height="54" viewBox="0 0 54 54" fill="none" xmlns="http://www.w3.org/2000/svg">
<path fill-rule="evenodd" clip-rule="evenodd" d="M18.2552 11.9259L18.2503 11.9289L18.2453 11.9316L18.2141 11.9475C18.1762 11.9664 18.1263 11.9906 18.0351 12.0346L13.1327 14.3997C12.4149 14.7459 11.7385 15.0721 11.1994 15.409C10.5984 15.7847 10.0089 16.2667 9.58317 17C9.15742 17.7333 9.03241 18.482 9.00579 19.1875C8.98191 19.8202 9.03602 20.5658 9.09345 21.3571L9.48503 26.7618C9.49232 26.8624 9.49626 26.9174 9.4987 26.9595L9.50042 26.9943L9.50055 26.9993L9.50042 27.0057L9.4987 27.0405C9.49626 27.0826 9.49232 27.1376 9.48503 27.2382L9.09345 32.6429C9.03602 33.4342 8.98191 34.1798 9.00579 34.8125C9.03241 35.518 9.15742 36.2667 9.58317 37C10.0089 37.7333 10.5984 38.2153 11.1994 38.591C11.7385 38.9279 12.4148 39.2541 13.1326 39.6003L18.0351 41.9654C18.1263 42.0094 18.1762 42.0336 18.2141 42.0525L18.2453 42.0684L18.2509 42.0715L18.2551 42.0741L18.2846 42.093C18.32 42.1161 18.366 42.1471 18.45 42.2036L22.9608 45.2432C23.6212 45.6883 24.2434 46.1077 24.8064 46.4035C25.434 46.7333 26.1485 47 27 47C27.8515 47 28.566 46.7333 29.1936 46.4035C29.7566 46.1077 30.3788 45.6883 31.0392 45.2432L35.55 42.2036C35.634 42.1471 35.68 42.1161 35.7154 42.093L35.7449 42.0741L35.7504 42.0708L35.7547 42.0684L35.7859 42.0525C35.8238 42.0336 35.8737 42.0094 35.9649 41.9654L40.8673 39.6003C41.585 39.2542 42.2616 38.9279 42.8006 38.591C43.4016 38.2153 43.9911 37.7333 44.4168 37C44.8426 36.2667 44.9676 35.518 44.9942 34.8125C45.0181 34.1798 44.964 33.4341 44.9065 32.6428L44.515 27.2382C44.5077 27.1376 44.5037 27.0826 44.5013 27.0405L44.4996 27.0057L44.4994 26.9993L44.4996 26.9943L44.5013 26.9595C44.5037 26.9175 44.5077 26.8624 44.515 26.7618L44.9065 21.3572C44.964 20.5659 45.0181 19.8202 44.9942 19.1875C44.9676 18.482 44.8426 17.7333 44.4168 17C43.9911 16.2667 43.4016 15.7847 42.8006 15.409C42.2615 15.0721 41.5851 14.7459 40.8674 14.3997L35.9649 12.0346C35.8737 11.9906 35.8238 11.9664 35.7859 11.9475L35.7547 11.9316L35.7491 11.9285L35.7448 11.9259L35.7154 11.907C35.68 11.8839 35.634 11.8529 35.55 11.7964L31.0392 8.7568C30.3789 8.3117 29.7566 7.89227 29.1936 7.59648C28.566 7.26666 27.8515 7 27 7C26.1485 7 25.434 7.26666 24.8064 7.59648C24.2434 7.89227 23.6211 8.31171 22.9607 8.75682L18.45 11.7964C18.366 11.8529 18.32 11.8839 18.2846 11.907L18.2552 11.9259ZM27 34.9554C31.4181 34.9554 34.9996 31.3936 34.9996 27C34.9996 22.6064 31.4181 19.0446 27 19.0446C22.5819 19.0446 19.0004 22.6064 19.0004 27C19.0004 31.3936 22.5819 34.9554 27 34.9554Z" fill="#ED6528"/>
</svg>
