<svg width="25" height="24" viewBox="0 0 25 24" fill="none" xmlns="http://www.w3.org/2000/svg">
<path d="M12.5001 11C12.2349 11 11.9805 11.1054 11.793 11.2929C11.6055 11.4804 11.5001 11.7348 11.5001 12V15C11.5001 15.2652 11.6055 15.5196 11.793 15.7071C11.9805 15.8946 12.2349 16 12.5001 16C12.7653 16 13.0197 15.8946 13.2072 15.7071C13.3948 15.5196 13.5001 15.2652 13.5001 15V12C13.5001 11.7348 13.3948 11.4804 13.2072 11.2929C13.0197 11.1054 12.7653 11 12.5001 11ZM12.5001 8C12.3023 8 12.109 8.05865 11.9445 8.16853C11.7801 8.27841 11.6519 8.43459 11.5762 8.61732C11.5005 8.80004 11.4807 9.00111 11.5193 9.19509C11.5579 9.38907 11.6532 9.56725 11.793 9.70711C11.9329 9.84696 12.111 9.9422 12.305 9.98079C12.499 10.0194 12.7001 9.99957 12.8828 9.92388C13.0655 9.84819 13.2217 9.72002 13.3316 9.55557C13.4415 9.39112 13.5001 9.19778 13.5001 9C13.5001 8.73478 13.3948 8.48043 13.2072 8.29289C13.0197 8.10536 12.7653 8 12.5001 8ZM12.5001 2C11.1869 2 9.88653 2.25866 8.67328 2.7612C7.46002 3.26375 6.35763 4.00035 5.42904 4.92893C3.55368 6.8043 2.50011 9.34784 2.50011 12C2.49137 14.3091 3.2909 16.5485 4.76011 18.33L2.76011 20.33C2.62135 20.4706 2.52736 20.6492 2.48998 20.8432C2.45261 21.0372 2.47353 21.2379 2.55011 21.42C2.63317 21.5999 2.76781 21.7511 2.93696 21.8544C3.1061 21.9577 3.30211 22.0083 3.50011 22H12.5001C15.1523 22 17.6958 20.9464 19.5712 19.0711C21.4465 17.1957 22.5001 14.6522 22.5001 12C22.5001 9.34784 21.4465 6.8043 19.5712 4.92893C17.6958 3.05357 15.1523 2 12.5001 2ZM12.5001 20H5.91011L6.84011 19.07C6.9346 18.9774 7.00977 18.8669 7.06126 18.7451C7.11276 18.6232 7.13956 18.4923 7.14011 18.36C7.13635 18.0962 7.02852 17.8446 6.84011 17.66C5.5307 16.352 4.71528 14.6305 4.5328 12.7888C4.35032 10.947 4.81205 9.09901 5.83934 7.55952C6.86662 6.02004 8.3959 4.88436 10.1666 4.34597C11.9374 3.80759 13.84 3.8998 15.5503 4.60691C17.2607 5.31402 18.673 6.59227 19.5465 8.22389C20.4201 9.85551 20.701 11.7395 20.3412 13.555C19.9815 15.3705 19.0034 17.005 17.5736 18.1802C16.1439 19.3554 14.3509 19.9985 12.5001 20Z" fill="#111111"/>
</svg>
