<svg width="17" height="16" viewBox="0 0 17 16" fill="none" xmlns="http://www.w3.org/2000/svg">
<path d="M14.5007 9.33301C14.3238 9.33301 14.1543 9.40325 14.0292 9.52827C13.9042 9.65329 13.834 9.82286 13.834 9.99967V12.6663C13.834 12.8432 13.7637 13.0127 13.6387 13.1377C13.5137 13.2628 13.3441 13.333 13.1673 13.333H3.83398C3.65717 13.333 3.4876 13.2628 3.36258 13.1377C3.23756 13.0127 3.16732 12.8432 3.16732 12.6663V9.99967C3.16732 9.82286 3.09708 9.65329 2.97206 9.52827C2.84703 9.40325 2.67746 9.33301 2.50065 9.33301C2.32384 9.33301 2.15427 9.40325 2.02925 9.52827C1.90422 9.65329 1.83398 9.82286 1.83398 9.99967V12.6663C1.83398 13.1968 2.0447 13.7055 2.41977 14.0806C2.79484 14.4556 3.30355 14.6663 3.83398 14.6663H13.1673C13.6978 14.6663 14.2065 14.4556 14.5815 14.0806C14.9566 13.7055 15.1673 13.1968 15.1673 12.6663V9.99967C15.1673 9.82286 15.0971 9.65329 14.9721 9.52827C14.847 9.40325 14.6775 9.33301 14.5007 9.33301ZM8.02732 10.473C8.09072 10.5337 8.16548 10.5813 8.24732 10.613C8.32712 10.6483 8.4134 10.6665 8.50065 10.6665C8.5879 10.6665 8.67418 10.6483 8.75398 10.613C8.83582 10.5813 8.91058 10.5337 8.97398 10.473L11.6407 7.80634C11.7662 7.68081 11.8367 7.51054 11.8367 7.33301C11.8367 7.15547 11.7662 6.98521 11.6407 6.85967C11.5151 6.73414 11.3449 6.66361 11.1673 6.66361C10.9898 6.66361 10.8195 6.73414 10.694 6.85967L9.16732 8.39301V1.99967C9.16732 1.82286 9.09708 1.65329 8.97206 1.52827C8.84703 1.40325 8.67746 1.33301 8.50065 1.33301C8.32384 1.33301 8.15427 1.40325 8.02925 1.52827C7.90422 1.65329 7.83398 1.82286 7.83398 1.99967V8.39301L6.30732 6.85967C6.24516 6.79752 6.17137 6.74821 6.09015 6.71457C6.00894 6.68093 5.92189 6.66361 5.83398 6.66361C5.74608 6.66361 5.65903 6.68093 5.57782 6.71457C5.4966 6.74821 5.42281 6.79752 5.36065 6.85967C5.29849 6.92183 5.24919 6.99563 5.21554 7.07684C5.1819 7.15806 5.16459 7.2451 5.16459 7.33301C5.16459 7.42091 5.1819 7.50796 5.21554 7.58917C5.24919 7.67039 5.29849 7.74418 5.36065 7.80634L8.02732 10.473Z" fill="#ED6528"/>
</svg>
