<svg width="14" height="14" viewBox="0 0 14 14" fill="none" xmlns="http://www.w3.org/2000/svg">
<path d="M12.9997 8.33301C12.8229 8.33301 12.6533 8.40325 12.5283 8.52827C12.4032 8.65329 12.333 8.82286 12.333 8.99967V11.6663C12.333 11.8432 12.2628 12.0127 12.1377 12.1377C12.0127 12.2628 11.8432 12.333 11.6663 12.333H2.33301C2.1562 12.333 1.98663 12.2628 1.8616 12.1377C1.73658 12.0127 1.66634 11.8432 1.66634 11.6663V8.99967C1.66634 8.82286 1.5961 8.65329 1.47108 8.52827C1.34605 8.40325 1.17649 8.33301 0.999674 8.33301C0.822863 8.33301 0.653294 8.40325 0.52827 8.52827C0.403246 8.65329 0.333008 8.82286 0.333008 8.99967V11.6663C0.333008 12.1968 0.543722 12.7055 0.918794 13.0806C1.29387 13.4556 1.80257 13.6663 2.33301 13.6663H11.6663C12.1968 13.6663 12.7055 13.4556 13.0806 13.0806C13.4556 12.7055 13.6663 12.1968 13.6663 11.6663V8.99967C13.6663 8.82286 13.5961 8.65329 13.4711 8.52827C13.3461 8.40325 13.1765 8.33301 12.9997 8.33301ZM6.52634 9.47301C6.58974 9.5337 6.66451 9.58128 6.74634 9.61301C6.82614 9.64828 6.91243 9.6665 6.99967 9.6665C7.08692 9.6665 7.17321 9.64828 7.25301 9.61301C7.33484 9.58128 7.40961 9.5337 7.47301 9.47301L10.1397 6.80634C10.2652 6.68081 10.3357 6.51054 10.3357 6.33301C10.3357 6.15547 10.2652 5.98521 10.1397 5.85967C10.0141 5.73414 9.84388 5.66361 9.66634 5.66361C9.48881 5.66361 9.31854 5.73414 9.19301 5.85967L7.66634 7.39301V0.999674C7.66634 0.822863 7.5961 0.653294 7.47108 0.52827C7.34606 0.403246 7.17649 0.333008 6.99967 0.333008C6.82286 0.333008 6.65329 0.403246 6.52827 0.52827C6.40325 0.653294 6.33301 0.822863 6.33301 0.999674V7.39301L4.80634 5.85967C4.74418 5.79752 4.67039 5.74821 4.58917 5.71457C4.50796 5.68093 4.42091 5.66361 4.33301 5.66361C4.2451 5.66361 4.15806 5.68093 4.07684 5.71457C3.99563 5.74821 3.92183 5.79752 3.85967 5.85967C3.79752 5.92183 3.74821 5.99563 3.71457 6.07684C3.68093 6.15806 3.66361 6.2451 3.66361 6.33301C3.66361 6.42091 3.68093 6.50796 3.71457 6.58917C3.74821 6.67039 3.79752 6.74418 3.85967 6.80634L6.52634 9.47301Z" fill="#1D253E"/>
</svg>
