<svg width="15" height="14" viewBox="0 0 15 14" fill="none" xmlns="http://www.w3.org/2000/svg">
<path d="M13.5 8.33337C13.3232 8.33337 13.1537 8.40361 13.0286 8.52864C12.9036 8.65366 12.8334 8.82323 12.8334 9.00004V11.6667C12.8334 11.8435 12.7631 12.0131 12.6381 12.1381C12.5131 12.2631 12.3435 12.3334 12.1667 12.3334H2.83337C2.65656 12.3334 2.48699 12.2631 2.36197 12.1381C2.23695 12.0131 2.16671 11.8435 2.16671 11.6667V9.00004C2.16671 8.82323 2.09647 8.65366 1.97145 8.52864C1.84642 8.40361 1.67685 8.33337 1.50004 8.33337C1.32323 8.33337 1.15366 8.40361 1.02864 8.52864C0.903612 8.65366 0.833374 8.82323 0.833374 9.00004V11.6667C0.833374 12.1971 1.04409 12.7058 1.41916 13.0809C1.79423 13.456 2.30294 13.6667 2.83337 13.6667H12.1667C12.6971 13.6667 13.2058 13.456 13.5809 13.0809C13.956 12.7058 14.1667 12.1971 14.1667 11.6667V9.00004C14.1667 8.82323 14.0965 8.65366 13.9714 8.52864C13.8464 8.40361 13.6769 8.33337 13.5 8.33337ZM7.02671 9.47337C7.09011 9.53407 7.16487 9.58165 7.24671 9.61337C7.32651 9.64864 7.41279 9.66686 7.50004 9.66686C7.58729 9.66686 7.67357 9.64864 7.75337 9.61337C7.83521 9.58165 7.90997 9.53407 7.97337 9.47337L10.64 6.80671C10.7656 6.68117 10.8361 6.51091 10.8361 6.33337C10.8361 6.15584 10.7656 5.98558 10.64 5.86004C10.5145 5.73451 10.3442 5.66398 10.1667 5.66398C9.98917 5.66398 9.81891 5.73451 9.69337 5.86004L8.16671 7.39337V1.00004C8.16671 0.82323 8.09647 0.65366 7.97145 0.528636C7.84642 0.403612 7.67685 0.333374 7.50004 0.333374C7.32323 0.333374 7.15366 0.403612 7.02864 0.528636C6.90361 0.65366 6.83337 0.82323 6.83337 1.00004V7.39337L5.30671 5.86004C5.24455 5.79788 5.17076 5.74857 5.08954 5.71493C5.00833 5.68129 4.92128 5.66398 4.83337 5.66398C4.74547 5.66398 4.65842 5.68129 4.57721 5.71493C4.49599 5.74857 4.4222 5.79788 4.36004 5.86004C4.29788 5.9222 4.24857 5.99599 4.21493 6.07721C4.18129 6.15842 4.16398 6.24547 4.16398 6.33337C4.16398 6.42128 4.18129 6.50833 4.21493 6.58954C4.24857 6.67076 4.29788 6.74455 4.36004 6.80671L7.02671 9.47337Z" fill="white"/>
</svg>
