<svg width="17" height="16" viewBox="0 0 17 16" fill="none" xmlns="http://www.w3.org/2000/svg">
<g clip-path="url(#clip0_959_2212)">
<path d="M1.5 14.5V1.50001C1.5 1.22385 1.72384 1.00001 2 1.00001H9.5V3.00001C9.5 3.55229 9.94772 4.00001 10.5 4.00001H12.5V5.50001H13.5V3.50001C13.5008 3.3671 13.4486 3.23935 13.355 3.14501L10.355 0.145008C10.2607 0.0514142 10.1329 -0.000742022 10 7.9781e-06H2C1.17156 7.9781e-06 0.5 0.671602 0.5 1.50001V14.5C0.5 15.3284 1.17156 16 2 16H5.5V15H2C1.72388 15 1.5 14.7762 1.5 14.5Z" fill="#7E8495"/>
<path d="M7 8H5C4.72384 8 4.5 8.22384 4.5 8.5V13H5.5V11.5H7C7.55228 11.5 8 11.0523 8 10.5V9C8 8.44772 7.55228 8 7 8ZM7 10.5H5.5V9H7V10.5Z" fill="#7E8495"/>
<path d="M11 8H9C8.72384 8 8.5 8.22384 8.5 8.5V13H9.5V11.5H11C11.5523 11.5 12 11.0523 12 10.5V9C12 8.44772 11.5523 8 11 8ZM11 10.5H9.5V9H11V10.5Z" fill="#7E8495"/>
<path d="M12.5 8V9H14V13H15V9H16.5V8H12.5Z" fill="#7E8495"/>
</g>
<defs>
<clipPath id="clip0_959_2212">
<rect width="16" height="16" fill="white" transform="translate(0.5)"/>
</clipPath>
</defs>
</svg>
