<svg width="24" height="24" viewBox="0 0 24 24" fill="none" xmlns="http://www.w3.org/2000/svg">
<rect x="4" y="4" width="16" height="16" rx="4" fill="white"/>
<path d="M12.002 21.041C9.54195 21.041 9.25195 21.028 8.29195 20.986C7.54332 20.9614 6.80439 20.8092 6.10695 20.536C4.90026 20.0664 3.94609 19.1119 3.47695 17.905C3.21426 17.205 3.07257 16.4655 3.05795 15.718C3.00195 14.76 3.00195 14.446 3.00195 12.005C3.00195 9.53801 3.01495 9.25001 3.05795 8.29501C3.07289 7.54853 3.21457 6.81001 3.47695 6.11101C3.94558 4.90253 4.9013 3.94718 6.10995 3.47901C6.8086 3.21521 7.5473 3.07315 8.29395 3.059C9.24895 3.005 9.56295 3.005 12.002 3.005C14.482 3.005 14.767 3.018 15.712 3.059C16.4605 3.07327 17.2012 3.21531 17.902 3.47901C19.1103 3.94771 20.0658 4.90288 20.535 6.11101C20.8021 6.8202 20.9445 7.57026 20.9559 8.32801C21.0119 9.28601 21.012 9.59901 21.012 12.039C21.012 14.479 20.9979 14.799 20.9559 15.746C20.9411 16.4942 20.799 17.2344 20.5359 17.935C20.0656 19.1427 19.11 20.0976 17.902 20.567C17.2022 20.8292 16.4631 20.9709 15.716 20.986C14.761 21.041 14.448 21.041 12.002 21.041ZM11.968 4.58801C9.52195 4.58801 9.26795 4.60001 8.31295 4.64301C7.74294 4.65056 7.17843 4.75575 6.64395 4.95401C5.85471 5.25601 5.23018 5.878 4.92495 6.66601C4.72517 7.2063 4.61996 7.77698 4.61395 8.35301C4.56095 9.32201 4.56095 9.57601 4.56095 12.005C4.56095 14.405 4.56995 14.696 4.61395 15.659C4.6229 16.2292 4.72805 16.7938 4.92495 17.329C5.23063 18.1165 5.85505 18.738 6.64395 19.04C7.17807 19.2396 7.7428 19.3448 8.31295 19.351C9.28095 19.407 9.53595 19.407 11.968 19.407C14.421 19.407 14.675 19.395 15.622 19.351C16.1924 19.3441 16.7573 19.2389 17.292 19.04C18.0764 18.7354 18.6969 18.1153 19.002 17.331C19.2014 16.7903 19.3065 16.2193 19.313 15.643H19.3239C19.367 14.687 19.367 14.432 19.367 11.989C19.367 9.54601 19.3559 9.28901 19.313 8.33401C19.304 7.76446 19.1988 7.20052 19.002 6.66601C18.6976 5.88058 18.077 5.2593 17.292 4.95401C16.7574 4.75475 16.1924 4.64953 15.622 4.64301C14.655 4.58801 14.402 4.58801 11.968 4.58801ZM12.002 16.624C10.1319 16.6252 8.44537 15.4997 7.72882 13.7725C7.01226 12.0452 7.40686 10.0563 8.72858 8.73347C10.0503 7.4106 12.0388 7.01428 13.7667 7.72934C15.4946 8.4444 16.6215 10.13 16.622 12C16.6192 14.5511 14.553 16.619 12.002 16.624ZM12.002 8.99801C10.3451 8.99801 9.00195 10.3412 9.00195 11.998C9.00195 13.6549 10.3451 14.998 12.002 14.998C13.6588 14.998 15.002 13.6549 15.002 11.998C14.9981 10.3428 13.6572 9.00186 12.002 8.99801ZM16.802 8.28501C16.2074 8.2828 15.7269 7.79959 15.728 7.20501C15.7291 6.61043 16.2114 6.12901 16.806 6.12901C17.4005 6.12901 17.8828 6.61043 17.884 7.20501C17.8842 7.49187 17.7702 7.76703 17.5672 7.96968C17.3642 8.17234 17.0888 8.2858 16.802 8.28501Z" fill="white"/>
<circle cx="12.0001" cy="12" r="3.28571" fill="white" stroke="#030D2F" stroke-width="2"/>
<ellipse cx="17.1428" cy="6.85714" rx="0.857143" ry="0.857143" fill="#030D2F"/>
</svg>
