<svg width="12" height="12" viewBox="0 0 12 12" fill="none" xmlns="http://www.w3.org/2000/svg">
<path fill-rule="evenodd" clip-rule="evenodd" d="M9.02707 5.11306L0.870598 5.17852C0.386933 5.17852 0 5.57126 0 6.06218C0 6.55311 0.386933 6.94585 0.870598 6.94585L9.02062 6.88039L5.96385 9.98959C5.62206 10.3365 5.62206 10.8929 5.96385 11.2398C6.30564 11.5867 6.8538 11.5867 7.19559 11.2398L11.742 6.62511C11.9097 6.45492 12 6.22583 12 6.00327C12 5.78072 11.9162 5.55162 11.742 5.38143L7.18914 0.76019C6.84735 0.41327 6.29919 0.41327 5.9574 0.76019C5.62206 1.10056 5.62206 1.66349 5.96385 2.00387L9.02707 5.11306Z" fill="#ED6528"/>
</svg>
