<svg width="15" height="12" viewBox="0 0 15 12" fill="none" xmlns="http://www.w3.org/2000/svg">
<path d="M14.2099 1.2101C14.117 1.11638 14.0064 1.04198 13.8845 0.991213C13.7627 0.940445 13.632 0.914307 13.4999 0.914307C13.3679 0.914307 13.2372 0.940445 13.1154 0.991213C12.9935 1.04198 12.8829 1.11638 12.79 1.2101L5.33995 8.6701L2.20995 5.5301C2.11343 5.43687 1.99949 5.36355 1.87463 5.31435C1.74978 5.26514 1.61645 5.24101 1.48227 5.24334C1.34809 5.24566 1.21568 5.27438 1.0926 5.32788C0.969525 5.38137 0.858188 5.45858 0.76495 5.55511C0.671711 5.65163 0.598397 5.76557 0.549193 5.89042C0.499989 6.01528 0.475859 6.1486 0.47818 6.28278C0.480502 6.41696 0.50923 6.54937 0.562723 6.67245C0.616216 6.79553 0.693428 6.90687 0.78995 7.0001L4.62995 10.8401C4.72291 10.9338 4.83351 11.0082 4.95537 11.059C5.07723 11.1098 5.20794 11.1359 5.33995 11.1359C5.47196 11.1359 5.60267 11.1098 5.72453 11.059C5.84639 11.0082 5.95699 10.9338 6.04995 10.8401L14.2099 2.68011C14.3115 2.58646 14.3925 2.47281 14.4479 2.34631C14.5033 2.21981 14.5319 2.08321 14.5319 1.94511C14.5319 1.807 14.5033 1.6704 14.4479 1.5439C14.3925 1.4174 14.3115 1.30375 14.2099 1.2101Z" fill="black"/>
</svg>
