<svg width="32" height="32" viewBox="0 0 32 32" fill="none" xmlns="http://www.w3.org/2000/svg">
<path d="M17.4158 16.0041L23.7158 9.71409C23.9041 9.52579 24.0099 9.27039 24.0099 9.00409C24.0099 8.73779 23.9041 8.4824 23.7158 8.29409C23.5275 8.10579 23.2721 8 23.0058 8C22.7395 8 22.4841 8.10579 22.2958 8.29409L16.0058 14.5941L9.7158 8.29409C9.52749 8.10579 9.2721 8 9.0058 8C8.7395 8 8.4841 8.10579 8.2958 8.29409C8.10749 8.4824 8.00171 8.73779 8.00171 9.00409C8.00171 9.27039 8.10749 9.52579 8.2958 9.71409L14.5958 16.0041L8.2958 22.2941C8.20207 22.3871 8.12768 22.4977 8.07691 22.6195C8.02614 22.7414 8 22.8721 8 23.0041C8 23.1361 8.02614 23.2668 8.07691 23.3887C8.12768 23.5105 8.20207 23.6211 8.2958 23.7141C8.38876 23.8078 8.49936 23.8822 8.62122 23.933C8.74308 23.9838 8.87379 24.0099 9.0058 24.0099C9.13781 24.0099 9.26852 23.9838 9.39038 23.933C9.51223 23.8822 9.62284 23.8078 9.7158 23.7141L16.0058 17.4141L22.2958 23.7141C22.3888 23.8078 22.4994 23.8822 22.6212 23.933C22.7431 23.9838 22.8738 24.0099 23.0058 24.0099C23.1378 24.0099 23.2685 23.9838 23.3904 23.933C23.5122 23.8822 23.6228 23.8078 23.7158 23.7141C23.8095 23.6211 23.8839 23.5105 23.9347 23.3887C23.9855 23.2668 24.0116 23.1361 24.0116 23.0041C24.0116 22.8721 23.9855 22.7414 23.9347 22.6195C23.8839 22.4977 23.8095 22.3871 23.7158 22.2941L17.4158 16.0041Z" fill="white"/>
</svg>
