<svg width="22" height="22" viewBox="0 0 22 22" fill="none" xmlns="http://www.w3.org/2000/svg">
<g clip-path="url(#clip0)">
<path d="M10.2188 6.23753C9.68155 5.99685 9.10278 5.73755 8.13507 5.73755C4.5235 5.73755 3.62063 9.34927 3.62061 12.9607C3.62058 16.5721 6.32928 21.0867 8.13507 21.0867C9.19287 21.0867 9.94085 20.7769 10.5605 20.5202C10.9987 20.3387 11.3726 20.1838 11.7466 20.1838C12.1206 20.1838 12.4946 20.3387 12.9328 20.5202C13.5524 20.7769 14.3004 21.0867 15.3582 21.0867C16.6473 21.0867 18.3965 18.7862 19.292 16.1558C19.3822 15.8909 19.1982 15.6176 18.9281 15.5446C17.3916 15.1294 16.2611 13.7256 16.2611 12.0578C16.2611 10.484 17.2677 9.14534 18.6723 8.65052C18.939 8.55654 19.1035 8.26445 18.9779 8.01109C18.3016 6.64771 17.1712 5.73755 15.3582 5.73755C14.3905 5.73755 13.8117 5.99685 13.2745 6.23753C12.8093 6.44597 12.3752 6.64044 11.7466 6.64044C11.1181 6.64044 10.684 6.44597 10.2188 6.23753Z" fill="white"/>
<path d="M11.7466 4.60899C11.7466 2.73904 13.2625 1.22314 15.1324 1.22314V1.22314C15.2571 1.22314 15.3582 1.3242 15.3582 1.44887V1.44887C15.3582 3.31882 13.8423 4.83471 11.9723 4.83471V4.83471C11.8476 4.83471 11.7466 4.73365 11.7466 4.60899V4.60899Z" fill="white"/>
</g>
<defs>
<clipPath id="clip0">
<rect width="21.6694" height="21.6694" fill="white" transform="translate(0.912109 0.32019)"/>
</clipPath>
</defs>
</svg>
