<svg width="22" height="22" viewBox="0 0 22 22" fill="none" xmlns="http://www.w3.org/2000/svg">
<path d="M11.2532 19.6353C11.2532 19.8847 11.4555 20.088 11.7046 20.0757C16.4814 19.8405 20.2821 15.893 20.2821 11.0579C20.2821 6.07132 16.2397 2.02893 11.2532 2.02893C6.26663 2.02893 2.22424 6.07132 2.22424 11.0579C2.22424 15.2338 5.05922 18.7476 8.90956 19.7796C9.18524 19.8535 9.44738 19.6393 9.44738 19.3539V12.8636H8.54449C8.04584 12.8636 7.6416 12.4594 7.6416 11.9607C7.6416 11.4621 8.04584 11.0579 8.54449 11.0579H9.44738V9.25207C9.44738 7.75611 10.6601 6.54339 12.1561 6.54339H13.059C13.5576 6.54339 13.9618 6.94763 13.9618 7.44628C13.9618 7.94494 13.5576 8.34918 13.059 8.34918H12.1561C11.6574 8.34918 11.2532 8.75342 11.2532 9.25207V11.0579H13.059C13.5576 11.0579 13.9618 11.4621 13.9618 11.9607C13.9618 12.4594 13.5576 12.8636 13.059 12.8636H11.2532V19.6353Z" fill="white"/>
</svg>
