<svg width="22" height="22" viewBox="0 0 22 22" fill="none" xmlns="http://www.w3.org/2000/svg">
<path d="M19.8857 6.99478C20.3372 13.7665 15.3713 19.1838 9.05102 19.1838C6.87333 19.1838 4.69563 18.892 2.98714 18.0738C2.59585 17.8864 2.74879 17.3645 3.18168 17.3358C5.2855 17.1963 7.02647 16.6939 8.14813 15.5723C3.2577 13.9421 2.41413 7.89722 3.29263 4.74404C3.39578 4.3738 3.87714 4.37187 4.07116 4.70365C5.5713 7.269 8.42369 8.70127 11.9986 8.37075C11.844 7.94105 11.7597 7.47775 11.7597 6.99478C11.7597 4.75084 13.5788 2.93176 15.8227 2.93176C17.1935 2.93176 18.4057 3.61057 19.1415 4.65038L20.692 4.42889C21.0783 4.37371 21.3479 4.80153 21.1314 5.12622L19.8857 6.99478Z" fill="white"/>
</svg>
