<svg width="22" height="22" viewBox="0 0 22 22" fill="none" xmlns="http://www.w3.org/2000/svg">
<path d="M11.241 21.8926C17.2217 21.8926 22.0757 17.0386 22.0757 11.0579C22.0757 5.07709 17.2217 0.223145 11.241 0.223145C5.2602 0.223145 0.40625 5.07709 0.40625 11.0579C0.40625 17.0386 5.2602 21.8926 11.241 21.8926ZM15.108 10.2841H16.6592V8.73381H18.2104V10.285H19.748V11.8361H18.2104V13.3873H16.6592V11.8361H15.108V10.2841ZM8.15216 5.6396C9.51914 5.6396 10.7778 6.12084 11.7791 7.05082L10.311 8.47558C9.73403 7.91127 8.944 7.64131 8.15216 7.64131C6.27776 7.64131 4.77896 9.19248 4.77896 11.0533C4.77896 12.9142 6.27324 14.4654 8.15216 14.4654C9.57603 14.4654 10.9872 13.6311 11.2148 12.1368H8.15216V10.2759H13.2598C13.3167 10.573 13.3429 10.8701 13.3429 11.1797C13.3429 14.2731 11.2671 16.4743 8.15216 16.4743V16.4752C5.14644 16.4752 2.73391 14.05 2.73391 11.0569C2.73391 8.06386 5.14644 5.6396 8.15216 5.6396Z" fill="white"/>
</svg>
