<svg width="19" height="18" viewBox="0 0 19 18" fill="none" xmlns="http://www.w3.org/2000/svg">
<g clip-path="url(#clip0)">
<path fill-rule="evenodd" clip-rule="evenodd" d="M-66.5 14.4692L-60.629 18L-62.1823 11.341L-57.0002 6.86287L-51.818 11.341L-53.3713 18L-47.5003 14.4692L-41.6293 18L-43.1826 11.341L-38.0003 6.86274L-44.8317 6.27819L-47.5003 0L-50.1688 6.27819L-57 6.86274H-57.0003L-63.8314 6.27819L-66.5 0L-69.1685 6.27819L-76 6.86274L-70.8177 11.341L-72.371 18L-66.5 14.4692ZM-22.6287 18L-28.4997 14.4692L-34.3707 18L-32.8174 11.341L-37.9997 6.86274L-31.1682 6.27819L-28.4997 0L-25.8311 6.27819L-19 6.86274H-18.9997L-12.1685 6.27819L-9.5 0L-6.83143 6.27819L0 6.86274L-5.18227 11.341L-3.629 18L-9.5 14.4692L-15.371 18L-13.8177 11.341L-18.9998 6.86287L-24.182 11.341L-22.6287 18ZM0 6.86274L5.18227 11.341L3.629 18L9.5 14.4692L15.371 18L13.8177 11.341L19 6.86274L12.1686 6.27819L9.5 0L6.83147 6.27819L0 6.86274Z" fill="#25292C"/>
<mask id="mask0" style="mask-type:alpha" maskUnits="userSpaceOnUse" x="-76" y="0" width="95" height="18">
<path fill-rule="evenodd" clip-rule="evenodd" d="M-66.5 14.4692L-60.629 18L-62.1823 11.341L-57.0002 6.86287L-51.818 11.341L-53.3713 18L-47.5003 14.4692L-41.6293 18L-43.1826 11.341L-38.0003 6.86274L-44.8317 6.27819L-47.5003 0L-50.1688 6.27819L-57 6.86274H-57.0003L-63.8314 6.27819L-66.5 0L-69.1685 6.27819L-76 6.86274L-70.8177 11.341L-72.371 18L-66.5 14.4692ZM-22.6287 18L-28.4997 14.4692L-34.3707 18L-32.8174 11.341L-37.9997 6.86274L-31.1682 6.27819L-28.4997 0L-25.8311 6.27819L-19 6.86274H-18.9997L-12.1685 6.27819L-9.5 0L-6.83143 6.27819L0 6.86274L-5.18227 11.341L-3.629 18L-9.5 14.4692L-15.371 18L-13.8177 11.341L-18.9998 6.86287L-24.182 11.341L-22.6287 18ZM0 6.86274L5.18227 11.341L3.629 18L9.5 14.4692L15.371 18L13.8177 11.341L19 6.86274L12.1686 6.27819L9.5 0L6.83147 6.27819L0 6.86274Z" fill="white"/>
</mask>
<g mask="url(#mask0)">
</g>
</g>
<defs>
<clipPath id="clip0">
<rect width="19" height="18" fill="white"/>
</clipPath>
</defs>
</svg>
