<svg width="32" height="32" viewBox="0 0 32 32" fill="none" xmlns="http://www.w3.org/2000/svg">
<path d="M19.3952 16.6488C20.2959 15.944 20.9534 14.9775 21.2762 13.8837C21.5989 12.79 21.5708 11.6234 21.1958 10.5462C20.8208 9.4691 20.1176 8.53498 19.1839 7.87384C18.2502 7.2127 17.1326 6.85742 15.9864 6.85742C14.8402 6.85742 13.7226 7.2127 12.7889 7.87384C11.8552 8.53498 11.152 9.4691 10.777 10.5462C10.402 11.6234 10.3739 12.79 10.6967 13.8837C11.0194 14.9775 11.6769 15.944 12.5777 16.6488C11.0341 17.2638 9.68738 18.2838 8.68093 19.6002C7.67448 20.9165 7.04608 22.4798 6.86272 24.1233C6.84945 24.2433 6.86007 24.3648 6.89398 24.4807C6.92789 24.5966 6.98443 24.7047 7.06036 24.7989C7.21372 24.9891 7.43677 25.111 7.68045 25.1376C7.92413 25.1643 8.16848 25.0936 8.35974 24.9411C8.55101 24.7885 8.67352 24.5667 8.70032 24.3244C8.90208 22.5382 9.75849 20.8885 11.1059 19.6905C12.4534 18.4926 14.1974 17.8303 16.0048 17.8303C17.8122 17.8303 19.5562 18.4926 20.9036 19.6905C22.2511 20.8885 23.1075 22.5382 23.3092 24.3244C23.3342 24.5489 23.442 24.7563 23.6116 24.9065C23.7813 25.0566 24.0009 25.139 24.228 25.1376H24.3291C24.57 25.1101 24.7901 24.9889 24.9415 24.8007C25.093 24.6124 25.1635 24.3722 25.1377 24.1325C24.9534 22.4843 24.3216 20.917 23.31 19.5986C22.2984 18.2802 20.9451 17.2605 19.3952 16.6488ZM15.9864 16C15.2595 16 14.549 15.7857 13.9446 15.384C13.3402 14.9824 12.8691 14.4116 12.591 13.7437C12.3128 13.0758 12.24 12.3409 12.3818 11.6319C12.5236 10.9229 12.8737 10.2717 13.3876 9.7605C13.9016 9.24933 14.5565 8.90122 15.2694 8.76019C15.9823 8.61916 16.7213 8.69154 17.3928 8.96818C18.0644 9.24483 18.6384 9.7133 19.0422 10.3144C19.4461 10.9154 19.6616 11.6221 19.6616 12.345C19.6616 13.3144 19.2744 14.244 18.5852 14.9295C17.8959 15.6149 16.9611 16 15.9864 16Z" fill="white"/>
</svg>
