<svg width="20" height="20" viewBox="0 0 20 20" fill="none" xmlns="http://www.w3.org/2000/svg">
<g clip-path="url(#clip0)">
<path d="M6.06754 2.23242C4.05461 2.23242 2.41699 3.96875 2.41699 6.10297C2.41699 8.23719 4.05461 9.97352 6.06754 9.97352C8.08047 9.97352 9.71812 8.23719 9.71812 6.10297C9.71812 3.96875 8.08051 2.23242 6.06754 2.23242Z" fill="white"/>
<path d="M14.3676 2.78613C14.3594 2.78613 14.351 2.78617 14.3428 2.78621C13.498 2.7932 12.7089 3.14988 12.121 3.79063C11.5433 4.42004 11.2292 5.25039 11.2365 6.12867C11.2437 7.00695 11.5715 7.83199 12.1594 8.45184C12.752 9.07648 13.537 9.41953 14.3723 9.41953C14.3807 9.41953 14.3891 9.41949 14.3976 9.41945C15.2423 9.41246 16.0314 9.05574 16.6194 8.41504C17.197 7.78562 17.5111 6.95527 17.5039 6.07695C17.4889 4.25687 16.0844 2.78613 14.3676 2.78613Z" fill="white"/>
<path d="M14.5207 10.0527H14.2176C12.8059 10.0527 11.5176 10.5895 10.5449 11.4691C10.7883 11.6559 11.0199 11.8594 11.2395 12.0789C11.8871 12.7266 12.3957 13.4813 12.7512 14.3219C13.0715 15.0789 13.2543 15.8766 13.2969 16.698H19.9996V15.5313C19.9996 12.5105 17.5418 10.0527 14.5207 10.0527Z" fill="white"/>
<path d="M12.123 16.6986C12.0125 14.9178 11.1098 13.3514 9.7625 12.3475C8.78242 11.617 7.5668 11.1846 6.25 11.1846H5.88516C2.63477 11.1846 0 13.8193 0 17.0697V17.7682H12.1348V17.0697C12.1348 16.9451 12.1309 16.8213 12.123 16.6986Z" fill="white"/>
</g>
<defs>
<clipPath id="clip0">
<rect width="20" height="20" fill="white"/>
</clipPath>
</defs>
</svg>
