<svg width="20" height="20" viewBox="0 0 20 20" fill="none" xmlns="http://www.w3.org/2000/svg">
<path d="M10.0003 1.66699C7.86398 1.67309 5.81157 2.49942 4.26699 3.97533V2.50033C4.26699 2.27931 4.1792 2.06735 4.02291 1.91107C3.86663 1.75479 3.65467 1.66699 3.43366 1.66699C3.21265 1.66699 3.00068 1.75479 2.8444 1.91107C2.68812 2.06735 2.60033 2.27931 2.60033 2.50033V6.25033C2.60033 6.47134 2.68812 6.6833 2.8444 6.83958C3.00068 6.99586 3.21265 7.08366 3.43366 7.08366H7.18366C7.40467 7.08366 7.61663 6.99586 7.77291 6.83958C7.92919 6.6833 8.01699 6.47134 8.01699 6.25033C8.01699 6.02931 7.92919 5.81735 7.77291 5.66107C7.61663 5.50479 7.40467 5.41699 7.18366 5.41699H5.18366C6.25514 4.29729 7.68325 3.58587 9.22244 3.40505C10.7616 3.22423 12.3157 3.5853 13.6175 4.4262C14.9193 5.26709 15.8875 6.53525 16.3556 8.01265C16.8237 9.49005 16.7624 11.0844 16.1823 12.5215C15.6023 13.9586 14.5396 15.1487 13.1771 15.8872C11.8146 16.6258 10.2374 16.8665 8.71662 16.5681C7.19585 16.2697 5.82655 15.4508 4.84415 14.2522C3.86176 13.0535 3.32765 11.5501 3.33366 10.0003C3.33366 9.77931 3.24586 9.56735 3.08958 9.41107C2.9333 9.25479 2.72134 9.16699 2.50033 9.16699C2.27931 9.16699 2.06735 9.25479 1.91107 9.41107C1.75479 9.56735 1.66699 9.77931 1.66699 10.0003C1.66699 11.6485 2.15573 13.2597 3.07141 14.6301C3.98709 16.0005 5.28858 17.0686 6.8113 17.6993C8.33401 18.3301 10.0096 18.4951 11.6261 18.1735C13.2426 17.852 14.7274 17.0583 15.8929 15.8929C17.0583 14.7274 17.852 13.2426 18.1735 11.6261C18.4951 10.0096 18.3301 8.33401 17.6993 6.8113C17.0686 5.28858 16.0005 3.98709 14.6301 3.07141C13.2597 2.15573 11.6485 1.66699 10.0003 1.66699ZM10.0003 6.66699C9.77931 6.66699 9.56735 6.75479 9.41107 6.91107C9.25479 7.06735 9.16699 7.27931 9.16699 7.50033V10.0003C9.16699 10.2213 9.25479 10.4333 9.41107 10.5896C9.56735 10.7459 9.77931 10.8337 10.0003 10.8337H11.667C11.888 10.8337 12.1 10.7459 12.2562 10.5896C12.4125 10.4333 12.5003 10.2213 12.5003 10.0003C12.5003 9.77931 12.4125 9.56735 12.2562 9.41107C12.1 9.25479 11.888 9.16699 11.667 9.16699H10.8337V7.50033C10.8337 7.27931 10.7459 7.06735 10.5896 6.91107C10.4333 6.75479 10.2213 6.66699 10.0003 6.66699Z" fill="white"/>
</svg>
