<svg width="20" height="20" viewBox="0 0 20 20" fill="none" xmlns="http://www.w3.org/2000/svg">
<path d="M14.3359 4.49883V4.33594C14.3359 1.94492 12.391 0 10 0C7.60898 0 5.66406 1.94492 5.66406 4.33594V4.49883C5.83719 4.48731 14.188 4.48898 14.3359 4.49883ZM11.25 1.875C11.5953 1.875 11.875 2.15469 11.875 2.5C11.875 2.84531 11.5953 3.125 11.25 3.125C10.9047 3.125 10.625 2.84531 10.625 2.5C10.625 2.15469 10.9047 1.875 11.25 1.875ZM8.75 1.875C9.09531 1.875 9.375 2.15469 9.375 2.5C9.375 2.84531 9.09531 3.125 8.75 3.125C8.40469 3.125 8.125 2.84531 8.125 2.5C8.125 2.15469 8.40469 1.875 8.75 1.875Z" fill="white"/>
<path d="M8.08594 8.75H11.9141V10.7031H8.08594V8.75Z" fill="white"/>
<path d="M17.7656 6.65375C17.7769 6.58184 17.7734 6.8777 17.7734 3.10547L18.7891 2.34375C18.9366 2.23309 19.0234 2.05945 19.0234 1.875V0.585938C19.0234 0.262344 18.7611 0 18.4375 0C18.1139 0 17.8516 0.262344 17.8516 0.585938V1.58203L17.1875 2.08008L16.5234 1.58203V0.585938C16.5234 0.262344 16.2611 0 15.9375 0C15.6139 0 15.3516 0.262344 15.3516 0.585938V1.875C15.3516 2.05945 15.4384 2.23309 15.5859 2.34375L16.6016 3.10547C16.6016 6.84418 16.598 6.58121 16.6094 6.65375C16.3275 6.74504 16.0749 6.90102 15.8692 7.10453C15.7193 6.28637 15.0014 5.66406 14.1406 5.66406H5.85938C4.99863 5.66406 4.28074 6.28637 4.13082 7.10449C3.92508 6.90102 3.67246 6.745 3.39062 6.65371C3.40191 6.5818 3.39844 6.87766 3.39844 3.10543L4.41406 2.34375C4.5616 2.23309 4.64844 2.05945 4.64844 1.875V0.585938C4.64844 0.262344 4.38609 0 4.0625 0C3.73891 0 3.47656 0.262344 3.47656 0.585938V1.58203L2.8125 2.08008L2.14844 1.58203V0.585938C2.14844 0.262344 1.88609 0 1.5625 0C1.23891 0 0.976562 0.262344 0.976562 0.585938V1.875C0.976562 2.05945 1.0634 2.23309 1.21094 2.34375L2.22656 3.10547C2.22656 6.84418 2.22301 6.58121 2.23438 6.65375C1.48184 6.8975 0.9375 7.60375 0.9375 8.4375C0.9375 9.47305 1.77695 10.3125 2.8125 10.3125C3.31199 10.3125 3.76551 10.1168 4.10156 9.79836V13.291C4.1918 13.2844 4.2832 13.2812 4.375 13.2812C16.4314 13.2812 15.7036 13.2767 15.8984 13.291V9.79836C16.2345 10.1168 16.688 10.3125 17.1875 10.3125C18.223 10.3125 19.0625 9.47305 19.0625 8.4375C19.0625 7.60375 18.5182 6.8975 17.7656 6.65375ZM13.0859 11.2891C13.0859 11.6125 12.8234 11.875 12.5 11.875H7.5C7.17656 11.875 6.91406 11.6125 6.91406 11.2891V8.16406C6.91406 7.84062 7.17656 7.57812 7.5 7.57812H12.5C12.8234 7.57812 13.0859 7.84062 13.0859 8.16406V11.2891Z" fill="white"/>
<path d="M15.625 14.4531H4.375C2.8457 14.4531 1.60156 15.6973 1.60156 17.2266C1.60156 18.7559 2.8457 20 4.375 20H15.625C17.1543 20 18.3984 18.7559 18.3984 17.2266C18.3984 15.6973 17.1543 14.4531 15.625 14.4531ZM2.77344 17.2266C2.77344 16.3434 3.4918 15.625 4.375 15.625C5.2582 15.625 5.97656 16.3434 5.97656 17.2266C5.97656 18.1098 5.2582 18.8281 4.375 18.8281C3.4918 18.8281 2.77344 18.1098 2.77344 17.2266ZM15.625 18.8281C14.7418 18.8281 14.0234 18.1098 14.0234 17.2266C14.0234 16.3434 14.7418 15.625 15.625 15.625C16.5082 15.625 17.2266 16.3434 17.2266 17.2266C17.2266 18.1098 16.5082 18.8281 15.625 18.8281Z" fill="white"/>
<path d="M4.375 17.8516C4.72018 17.8516 5 17.5717 5 17.2266C5 16.8814 4.72018 16.6016 4.375 16.6016C4.02982 16.6016 3.75 16.8814 3.75 17.2266C3.75 17.5717 4.02982 17.8516 4.375 17.8516Z" fill="white"/>
<path d="M15.625 17.8516C15.9702 17.8516 16.25 17.5717 16.25 17.2266C16.25 16.8814 15.9702 16.6016 15.625 16.6016C15.2798 16.6016 15 16.8814 15 17.2266C15 17.5717 15.2798 17.8516 15.625 17.8516Z" fill="white"/>
</svg>
