<svg width="20" height="20" viewBox="0 0 20 20" fill="none" xmlns="http://www.w3.org/2000/svg">
<path d="M13.3954 10.6488C14.2962 9.94398 14.9537 8.97746 15.2764 7.88371C15.5991 6.78996 15.571 5.62337 15.1961 4.54623C14.8211 3.4691 14.1178 2.53498 13.1841 1.87384C12.2505 1.2127 11.1328 0.857422 9.98665 0.857422C8.84049 0.857422 7.72283 1.2127 6.78916 1.87384C5.85549 2.53498 5.15224 3.4691 4.77725 4.54623C4.40226 5.62337 4.37417 6.78996 4.6969 7.88371C5.01963 8.97746 5.67712 9.94398 6.5779 10.6488C5.03439 11.2638 3.68762 12.2838 2.68117 13.6002C1.67472 14.9165 1.04632 16.4798 0.862964 18.1233C0.849691 18.2433 0.860315 18.3648 0.894227 18.4807C0.928138 18.5966 0.984675 18.7047 1.06061 18.7989C1.21396 18.9891 1.43702 19.111 1.6807 19.1376C1.92438 19.1643 2.16873 19.0936 2.35999 18.9411C2.55125 18.7885 2.67376 18.5667 2.70056 18.3244C2.90232 16.5382 3.75873 14.8885 5.10618 13.6905C6.45364 12.4926 8.19765 11.8303 10.005 11.8303C11.8124 11.8303 13.5564 12.4926 14.9039 13.6905C16.2513 14.8885 17.1077 16.5382 17.3095 18.3244C17.3345 18.5489 17.4422 18.7563 17.6119 18.9065C17.7815 19.0566 18.0011 19.139 18.2283 19.1376H18.3294C18.5702 19.1101 18.7903 18.9889 18.9418 18.8007C19.0932 18.6124 19.1637 18.3722 19.1379 18.1325C18.9537 16.4843 18.3219 14.917 17.3103 13.5986C16.2986 12.2802 14.9453 11.2605 13.3954 10.6488ZM9.98665 10C9.25977 10 8.5492 9.78567 7.94482 9.38405C7.34044 8.98243 6.86937 8.41159 6.59121 7.74372C6.31304 7.07585 6.24026 6.34094 6.38207 5.63194C6.52388 4.92293 6.8739 4.27166 7.38789 3.7605C7.90188 3.24933 8.55674 2.90122 9.26966 2.76019C9.98257 2.61916 10.7215 2.69154 11.3931 2.96818C12.0646 3.24483 12.6386 3.7133 13.0425 4.31437C13.4463 4.91544 13.6619 5.6221 13.6619 6.345C13.6619 7.31437 13.2746 8.24405 12.5854 8.9295C11.8962 9.61495 10.9614 10 9.98665 10Z" fill="#1D253E"/>
</svg>
