<svg width="94" height="32" viewBox="0 0 94 32" fill="none" xmlns="http://www.w3.org/2000/svg">
<path d="M0.130737 0.299865H7.82536C9.71356 0.299865 11.2371 0.859613 12.3959 1.97911C13.5548 3.09861 14.1342 4.58194 14.1342 6.42911C14.1342 8.26828 13.5264 9.74761 12.3108 10.8671C11.0953 11.9786 9.50691 12.5344 7.54577 12.5344H4.59191V17.6081H0.130737V0.299865ZM4.59191 3.67035V9.22385H6.60978C7.56603 9.22385 8.30754 8.98396 8.83429 8.50417C9.36104 8.02439 9.62441 7.3367 9.62441 6.4411C9.62441 5.5455 9.36104 4.86181 8.83429 4.39002C8.31564 3.91024 7.58224 3.67035 6.63409 3.67035H4.59191Z" fill="white"/>
<path d="M22.0826 3.62237V8.54016H24.7204C25.5389 8.54016 26.1791 8.32026 26.6411 7.88045C27.103 7.44065 27.3339 6.84492 27.3339 6.09326C27.3339 5.34959 27.0949 4.75386 26.6168 4.30606C26.1386 3.85027 25.5025 3.62237 24.7083 3.62237H22.0826ZM22.0826 11.5508V17.6081H17.6215V0.299865H25.1581C27.3299 0.299865 28.9952 0.79964 30.1541 1.79919C31.3129 2.79874 31.8924 4.20211 31.8924 6.0093C31.8924 7.09681 31.629 8.08436 31.1022 8.97196C30.5755 9.85157 29.8421 10.4953 28.902 10.9031L32.4029 17.6081H27.3947L24.3922 11.5508H22.0826Z" fill="white"/>
<path d="M37.4704 2.41092C39.0345 0.803638 41.1455 0 43.8036 0C46.4617 0 48.5687 0.803638 50.1246 2.41092C51.6805 4.01819 52.4585 6.20121 52.4585 8.95997C52.4585 11.7187 51.6805 13.9017 50.1246 15.509C48.5687 17.1083 46.4617 17.9079 43.8036 17.9079C41.1374 17.9079 39.0264 17.1083 37.4704 15.509C35.9145 13.9017 35.1365 11.7187 35.1365 8.95997C35.1365 6.20121 35.9145 4.01819 37.4704 2.41092ZM46.7939 5.03773C46.0484 4.06217 45.0516 3.57439 43.8036 3.57439C42.5556 3.57439 41.5548 4.06217 40.8011 5.03773C40.0555 6.0053 39.6828 7.31271 39.6828 8.95997C39.6828 10.5992 40.0555 11.9066 40.8011 12.8822C41.5467 13.8498 42.5475 14.3335 43.8036 14.3335C45.0516 14.3335 46.0484 13.8498 46.7939 12.8822C47.5476 11.9066 47.9244 10.5992 47.9244 8.95997C47.9244 7.31271 47.5476 6.0053 46.7939 5.03773Z" fill="white"/>
<path d="M60.5893 17.6081H56.1281V0.299865H68.0651V3.85027H60.5893V7.7845H67.3844V11.155H60.5893V17.6081Z" fill="white"/>
<path d="M75.9892 17.6081H71.528V0.299865H75.9892V17.6081Z" fill="white"/>
<path d="M88.7027 17.6081H84.2415V3.85027H79.3792V0.299865H93.565V3.85027H88.7027V17.6081Z" fill="white"/>
<path d="M73.1246 26.7272L71.2234 31.9376H70.1002L68.1942 26.7272H69.3077L70.6545 30.9109H70.6788L72.0306 26.7272H73.1246Z" fill="white"/>
<path d="M75.6876 31.9376V26.7272H76.7427V31.9376H75.6876ZM76.6552 25.8108C76.5353 25.9259 76.3894 25.9835 76.2176 25.9835C76.0458 25.9835 75.8999 25.9259 75.78 25.8108C75.6601 25.6924 75.6001 25.5501 75.6001 25.3838C75.6001 25.2143 75.6601 25.0719 75.78 24.9568C75.8999 24.8416 76.0458 24.784 76.2176 24.784C76.3894 24.784 76.5353 24.8416 76.6552 24.9568C76.7752 25.0719 76.8351 25.2143 76.8351 25.3838C76.8351 25.5501 76.7752 25.6924 76.6552 25.8108Z" fill="white"/>
<path d="M81.9557 27.5092C81.5765 27.5092 81.2604 27.634 81.0076 27.8835C80.758 28.1329 80.6186 28.4576 80.5894 28.8574H83.2686C83.2556 28.4512 83.1292 28.1249 82.8893 27.8787C82.6494 27.6324 82.3382 27.5092 81.9557 27.5092ZM83.2637 30.4119H84.2702C84.1956 30.8789 83.9477 31.2611 83.5263 31.5586C83.1049 31.8529 82.5976 32 82.0044 32C81.2393 32 80.6332 31.7633 80.1858 31.2899C79.7418 30.8133 79.5197 30.1672 79.5197 29.3516C79.5197 28.536 79.7418 27.8835 80.1858 27.3941C80.6299 26.9047 81.2215 26.66 81.9606 26.66C82.6867 26.66 83.2621 26.8919 83.6867 27.3557C84.1114 27.8163 84.3237 28.4416 84.3237 29.2316V29.5963H80.5846V29.6587C80.5846 30.1096 80.7158 30.4727 80.9784 30.7478C81.241 31.0196 81.5894 31.1556 82.0238 31.1556C82.3317 31.1556 82.5976 31.0884 82.8212 30.9541C83.0449 30.8197 83.1924 30.639 83.2637 30.4119Z" fill="white"/>
<path d="M94.0003 26.7272L92.5464 31.9376H91.4573L90.3341 28.013H90.3098L89.1963 31.9376H88.112L86.6533 26.7272H87.7036L88.6858 30.8533H88.7052L89.8235 26.7272H90.8349L91.9581 30.8533H91.9775L92.9597 26.7272H94.0003Z" fill="white"/>
<path d="M0 26.001H61.4078V30.5045H0V26.001Z" fill="#ED6528"/>
</svg>
